<svg width="368" height="369" viewBox="0 0 368 369" fill="none" xmlns="http://www.w3.org/2000/svg">
<path d="M114.77 344.209C114.77 344.209 -12.052 368.38 112.134 368.38C246.451 368.38 362.08 344.209 287.055 344.209H114.77Z" fill="#999999"/>
<path d="M3.42822 344.209H362.248" stroke="#263238" stroke-width="1.03017" stroke-linecap="round" stroke-linejoin="round"/>
<path d="M283.105 56.7651H82.6562C63.6708 75.8408 49.272 100.025 40.8002 127.066C32.3283 154.108 30.0588 183.128 34.2029 211.425C38.3471 239.722 48.77 266.377 64.5017 288.908C80.2334 311.438 100.762 329.113 124.178 340.286C129.57 342.867 135.367 344.201 141.224 344.21H224.444C230.305 344.203 236.104 342.868 241.499 340.286C264.919 329.121 285.454 311.453 301.193 288.927C316.932 266.4 327.363 239.748 331.516 211.451C335.668 183.154 333.407 154.132 324.943 127.086C316.478 100.04 302.086 75.8488 283.105 56.7651Z" fill="white"/>
<path d="M32.1231 183.68C32.1301 217.099 40.865 249.775 57.2368 277.627C73.6086 305.479 96.8916 327.273 124.178 340.286C129.57 342.867 135.367 344.201 141.225 344.21H224.444C230.305 344.202 236.104 342.868 241.499 340.286C260.757 331.097 278.109 317.49 292.454 300.329C306.799 283.168 317.823 262.829 324.825 240.603C331.827 218.377 334.654 194.752 333.126 171.227C331.599 147.703 325.75 124.794 315.952 103.957H49.734C38.1467 128.495 32.0981 155.877 32.1231 183.68Z" fill="#CBD1F8"/>
<path opacity="0.5" d="M32.1231 183.68C32.1301 217.099 40.865 249.775 57.2368 277.627C73.6086 305.479 96.8916 327.273 124.178 340.286C129.57 342.867 135.367 344.201 141.225 344.21H224.444C230.305 344.202 236.104 342.868 241.499 340.286C260.757 331.097 278.109 317.49 292.454 300.329C306.799 283.168 317.823 262.829 324.825 240.603C331.827 218.377 334.654 194.752 333.126 171.227C331.599 147.703 325.75 124.794 315.952 103.957H49.734C38.1467 128.495 32.0981 155.877 32.1231 183.68Z" fill="white"/>
<path d="M182.839 108.07C256.346 108.07 315.936 106.237 315.936 103.975C315.936 101.714 256.346 99.8804 182.839 99.8804C109.332 99.8804 49.7432 101.714 49.7432 103.975C49.7432 106.237 109.332 108.07 182.839 108.07Z" fill="#CBD1F8"/>
<path opacity="0.1" d="M210.379 288.819C122.746 294.605 80.1294 186.806 49.2115 181.182C40.3092 179.567 35.1211 183.215 32.2407 189.229C33.182 221.683 42.3397 253.155 58.6315 279.925C74.9232 306.695 97.668 327.644 124.178 340.296C129.57 342.877 135.367 344.211 141.224 344.22H224.444C230.305 344.212 236.104 342.878 241.499 340.296C277.85 322.908 306.731 290.174 321.973 249.086C295.654 241.076 298.004 283.033 210.379 288.819Z" fill="black"/>
<path opacity="0.2" d="M239.68 56.7651H238.24C257.224 75.8441 271.621 100.031 280.09 127.076C288.559 154.12 290.824 183.141 286.676 211.439C282.527 239.737 272.1 266.39 256.364 288.919C240.628 311.447 220.095 329.118 196.676 340.286C191.285 342.869 185.488 344.203 179.63 344.21H202.757C208.653 344.21 223.089 342.861 228.479 340.286C255.763 327.274 279.042 305.479 295.409 277.626C311.775 249.773 320.502 217.097 320.5 183.68C320.5 133.22 291.746 71.6533 239.68 56.7651Z" fill="white"/>
<path d="M283.105 56.7651H82.6562C63.6708 75.8408 49.272 100.025 40.8002 127.066C32.3283 154.108 30.0588 183.128 34.2029 211.425C38.3471 239.722 48.77 266.377 64.5017 288.908C80.2334 311.438 100.762 329.113 124.178 340.286C129.57 342.867 135.367 344.201 141.224 344.21H224.444C230.305 344.203 236.104 342.868 241.499 340.286C264.919 329.121 285.454 311.453 301.193 288.927C316.932 266.4 327.363 239.748 331.516 211.451C335.668 183.154 333.407 154.132 324.943 127.086C316.478 100.04 302.086 75.8488 283.105 56.7651Z" stroke="#263238" stroke-width="1.03017" stroke-linecap="round" stroke-linejoin="round"/>
<path d="M283.105 56.7648C283.105 59.0356 238.232 60.8693 182.881 60.8693C127.53 60.8693 82.6567 59.0356 82.6567 56.7648C82.6567 54.4941 127.488 52.6509 182.881 52.6509C238.274 52.6509 283.105 54.5511 283.105 56.7648Z" fill="#999999" stroke="#263238" stroke-width="1.03017" stroke-linecap="round" stroke-linejoin="round"/>
<path d="M111.965 245.798C111.965 245.798 114.492 232.382 112.521 231.898C110.55 231.413 109.497 246.89 109.497 246.89C109.497 246.89 107.872 232.183 105.716 232.886C103.56 233.589 107.568 247.631 107.568 247.631C107.568 247.631 102.692 234.33 100.982 234.71C99.2726 235.09 105.252 248.534 105.252 248.534C105.252 248.534 98.6999 237.133 97.2681 238.14C95.8363 239.147 102.566 250.14 102.566 250.14C102.566 250.14 96.0469 239.812 94.8509 240.838C93.655 241.864 99.2136 250.339 99.7863 251.175C99.2389 250.33 94.135 242.624 93.1328 243.698C92.1306 244.771 97.4955 252.486 97.9503 253.132C97.5376 252.543 92.9644 246.083 91.9453 246.786C90.9262 247.489 95.5079 253.931 95.5079 253.931C95.5079 253.931 92.0884 248.971 91.0609 249.807C90.0334 250.643 93.4444 254.615 93.4444 254.615L91.9621 255.175C89.1996 247.885 86.7431 240.452 84.5927 232.876C93.5118 231.175 107.771 226.463 108.411 214.254C109.253 198.739 106.103 216.715 106.103 216.715C106.103 216.715 105.362 202.587 103.888 203.033C102.414 203.48 104.317 220.544 104.317 220.544C104.317 220.544 100.603 202.663 99.3652 203.309C98.3125 203.86 100.923 217.152 101.732 221.123C100.94 217.323 98.304 205.219 97.0912 205.817C95.6595 206.52 99.6179 223.176 99.6179 223.176C99.6179 223.176 95.7353 208.924 94.7414 209.124C93.7476 209.323 97.5881 224.43 97.5881 224.43C97.5881 224.43 92.2653 208.078 90.8504 208.81C89.4354 209.542 95.6089 226.273 95.6089 226.273C95.6089 226.273 88.7196 211.394 87.6668 211.926C86.614 212.458 92.5517 224.829 93.4276 226.681C92.6443 225.028 87.8689 215.147 86.8414 215.784C86.0918 216.249 88.4669 221.351 90.1176 224.677C88.6101 221.826 86.4034 217.883 85.9065 218.52C85.1738 219.518 89.8902 228.069 89.8902 228.069C89.8902 228.069 85.3759 220.515 84.5 221.294C83.6241 222.073 88.1216 228.62 88.1216 228.62C88.1216 228.62 84.2221 223.955 83.4725 224.819C82.7229 225.684 86.8414 229.731 86.8414 229.731C86.8414 229.731 84.9296 228.781 83.2956 228.116C81.0974 219.888 79.2614 211.546 77.7707 203.147C86.8246 202.587 101.664 199.622 103.433 187.366C105.673 171.86 100.906 189.551 100.906 189.551C100.906 189.551 101.488 175.3 99.9716 175.547C98.4556 175.794 98.7757 193.181 98.7757 193.181C98.7757 193.181 95.8869 174.711 95.4489 175.271C94.4719 176.525 94.514 180.022 94.893 184.003C94.2951 180.383 93.596 177.285 92.9559 177.514C91.4652 178.046 93.8908 195.261 93.8908 195.261C93.8908 195.261 91.3641 180.43 90.345 180.554C89.326 180.677 91.76 196.269 91.76 196.269C91.76 196.269 87.9784 179.167 86.4877 179.756C84.9969 180.345 89.6039 197.874 89.6039 197.874C89.6039 197.874 84.121 182.093 83.0346 182.492C81.9481 182.891 86.6982 196.117 87.3973 198.017C86.774 196.278 82.9335 185.751 81.8554 186.264C81.0638 186.635 82.9588 192.05 84.2895 195.594C83.0514 192.525 81.2238 188.316 80.6932 188.896C79.851 189.846 83.7673 198.967 83.7673 198.967C83.7673 198.967 79.9773 190.834 79.0256 191.509C78.0739 192.183 81.9565 199.309 81.9565 199.309C81.9565 199.309 77.897 194.188 77.0716 194.995C76.2463 195.803 80.5416 200.278 80.5416 200.278C80.5416 200.278 78.5287 198.929 76.9116 198.093C75.682 190.492 74.7387 182.815 74.0649 175.186C82.7987 176.383 92.7033 174.074 97.7987 165.048C105.716 150.996 95.5416 165.808 95.5416 165.808C95.5416 165.808 99.2473 152.222 97.3271 151.557C95.4068 150.892 92.9896 166.758 92.9896 166.758C92.9896 166.758 92.678 151.386 90.463 151.908C88.2479 152.431 90.9935 167.319 90.9935 167.319C90.9935 167.319 87.3299 153.067 85.5949 153.362C83.8599 153.656 88.6101 168.041 88.6101 168.041C88.6101 168.041 83.1104 155.69 81.5944 156.64C80.0784 157.59 85.8055 169.485 85.8055 169.485C85.8055 169.485 80.2384 158.274 78.9582 159.243C77.678 160.212 82.4871 169.39 82.9588 170.312C82.504 169.428 78.0907 161.048 77.0043 162.074C75.9178 163.1 80.5584 171.452 80.9627 172.164C80.5921 171.509 76.6168 164.564 75.5472 165.172C74.4776 165.78 78.4697 172.772 78.4697 172.772C78.4697 172.772 74.8987 167.499 73.8038 168.288C72.7089 169.077 76.3305 173.324 76.3305 173.324L73.888 174.074C73.8281 173.644 73.6286 173.254 73.3283 172.98C73.0279 172.706 72.6481 172.568 72.2625 172.592C71.8259 172.68 71.4376 172.959 71.1822 173.368C70.9267 173.777 70.8247 174.284 70.8981 174.777C70.9023 174.809 70.9023 174.841 70.8981 174.872L69.4074 174.473C69.4074 174.473 73.2395 170.815 73.029 169.723C72.8184 168.63 67.8661 173.523 67.8661 173.523C67.8661 173.523 71.4961 168.136 70.5781 167.471C69.6601 166.806 66.367 172.829 66.367 172.829C66.367 172.829 69.3063 164.782 68.2957 164.231C67.285 163.68 64.531 172.858 64.531 172.858C64.531 172.858 67.2934 162.606 66.3838 161.77C65.8448 161.267 64.6994 165.381 63.7982 168.744C64.6994 164.811 65.7774 159.433 65.011 159.157C64.0761 158.806 62.0464 167.214 61.1789 171.053C62.1559 166.568 64.472 155.528 63.5877 155.272C62.4759 154.958 58.6185 172.953 58.6185 172.953C59.3597 166.701 60.4799 152.725 60.0082 152.63C60.0082 152.63 56.7994 165.846 56.2603 171.632C56.2603 171.632 57.212 153.875 56.193 153.837C55.1739 153.799 54.0116 170.939 54.0116 170.939C54.1464 164.583 53.9021 150.616 53.4642 150.568L51.5776 170.673C51.5776 170.673 51.2828 148.174 50.9291 148.136C50.9291 148.136 48.9246 169.552 48.9162 169.552C48.9077 169.552 48.773 150.759 46.3895 148.725C45.7915 148.212 46.3895 165.666 46.3895 165.666C46.3895 165.666 40.0476 144.763 43.6523 163.461C46.2884 177.076 61.3389 177.438 71.0582 175.813C71.6646 182.679 72.5068 189.548 73.5848 196.421C72.2625 197.114 70.0896 201.77 70.0896 201.77C70.0896 201.77 73.1637 194.036 71.9762 193.532C70.7887 193.029 68.1693 200.012 67.6219 201.456C68.2283 199.86 71.3361 191.461 70.2159 190.606C69.0958 189.751 65.9038 198.454 65.3563 199.984C65.9206 198.378 69.2727 188.744 68.0346 187.965C66.7965 187.186 62.3749 199.793 62.3749 199.793C62.3749 199.793 66.7797 186.311 65.2131 185.542C63.6466 184.772 59.4102 198.843 59.4102 198.843C59.4102 198.843 62.7791 182.635 61.0357 182.473C59.2923 182.312 56.9594 198.492 56.9594 198.492C56.9594 198.492 58.3406 181.656 56.1172 181.209C53.8937 180.763 54.8622 198.15 54.8622 198.15C54.8622 198.15 51.0807 180.24 49.2025 181.181C47.3244 182.122 52.2261 197.589 52.2261 197.589C52.2261 197.589 40.8645 182.046 49.8931 197.095C55.2581 206.026 66.3586 206.454 74.6713 203.337C76.1536 211.774 77.9897 220.164 80.171 228.439C79.3798 229.846 78.6709 231.309 78.0486 232.819C78.0486 232.819 79.3877 224.753 78.3181 224.373C77.2485 223.993 76.2294 233.104 76.2294 233.104C76.2294 233.104 77.7286 222.815 76.7347 222.14C76.1283 221.731 75.4546 225.883 74.9998 229.247C75.4209 225.313 75.842 219.974 75.0503 219.812C74.0733 219.613 73.0795 228.031 72.6752 231.85C73.1048 227.404 74.0817 216.401 73.1721 216.278C72.0267 216.126 70.3675 234.026 70.3675 234.026C70.3675 227.907 71.4119 216.135 69.2979 214.226C68.7084 213.694 67.8661 233.095 67.8661 233.095C67.8661 233.095 66.6702 215.822 65.6595 215.917C64.6489 216.012 65.5585 232.743 65.5585 232.743C64.9352 226.605 63.0318 213.142 62.5601 213.161L63.0907 232.829C63.0907 232.829 60.1009 211.147 59.7219 211.166C59.7219 211.166 60.3114 232.069 60.303 232.069C60.2946 232.069 57.8942 213.96 55.3086 212.306C54.6348 211.879 57.3047 228.658 57.3047 228.658C57.3047 228.658 48.4698 209.314 54.3232 226.891C58.5343 239.403 72.6247 238.102 82.0576 235.308C83.7027 240.952 85.5107 246.529 87.4815 252.04C87.0185 253.836 86.7083 255.678 86.555 257.541C86.555 257.541 86.7993 248.99 85.5612 249.151C84.4495 249.256 84.2558 256.885 84.2305 258.482C84.2305 256.714 84.3063 247.584 83.0177 247.365C81.7291 247.147 81.7039 256.629 81.7123 258.292C81.7123 256.553 81.5522 246.14 80.1794 246.054C78.6803 245.959 78.975 259.641 78.975 259.641C78.975 259.641 78.5034 245.19 76.8358 245.266C75.1682 245.342 75.9936 260.258 75.9936 260.258C75.9936 260.258 73.6775 243.831 72.0604 244.581C70.4433 245.332 73.6943 261.208 73.6943 261.208C73.6943 261.208 69.3653 245.228 67.2176 246.007C65.07 246.786 71.7825 262.035 71.7825 262.035C71.7825 262.035 62.4675 247.783 61.1031 249.684C59.7387 251.584 69.2474 262.909 69.2474 262.909C69.2474 262.909 53.9358 254.985 67.0155 263.698C74.4944 268.686 83.5904 264.04 89.7555 258.187C94.7723 271.223 100.854 283.705 107.922 295.469C108.116 295.822 108.414 296.088 108.763 296.218C109.113 296.348 109.492 296.335 109.834 296.182C109.93 296.131 110.021 296.067 110.104 295.992C110.436 295.683 110.652 295.242 110.705 294.759C110.758 294.277 110.645 293.79 110.39 293.398C103.446 281.824 97.4716 269.546 92.5432 256.724C100.915 256.923 109.96 253.798 114.138 244.828C120.833 230.482 111.965 245.798 111.965 245.798Z" fill="#CBD1F8"/>
<path opacity="0.3" d="M111.965 245.798C111.965 245.798 114.492 232.382 112.521 231.898C110.55 231.413 109.497 246.89 109.497 246.89C109.497 246.89 107.872 232.183 105.716 232.886C103.56 233.589 107.568 247.631 107.568 247.631C107.568 247.631 102.692 234.33 100.982 234.71C99.2726 235.09 105.252 248.534 105.252 248.534C105.252 248.534 98.6999 237.133 97.2681 238.14C95.8363 239.147 102.566 250.14 102.566 250.14C102.566 250.14 96.0469 239.812 94.8509 240.838C93.655 241.864 99.2136 250.339 99.7863 251.175C99.2389 250.33 94.135 242.624 93.1328 243.698C92.1306 244.771 97.4955 252.486 97.9503 253.132C97.5376 252.543 92.9644 246.083 91.9453 246.786C90.9262 247.489 95.5079 253.931 95.5079 253.931C95.5079 253.931 92.0884 248.971 91.0609 249.807C90.0334 250.643 93.4444 254.615 93.4444 254.615L91.9621 255.175C89.1996 247.885 86.7431 240.452 84.5927 232.876C93.5118 231.175 107.771 226.463 108.411 214.254C109.253 198.739 106.103 216.715 106.103 216.715C106.103 216.715 105.362 202.587 103.888 203.033C102.414 203.48 104.317 220.544 104.317 220.544C104.317 220.544 100.603 202.663 99.3652 203.309C98.3125 203.86 100.923 217.152 101.732 221.123C100.94 217.323 98.304 205.219 97.0912 205.817C95.6595 206.52 99.6179 223.176 99.6179 223.176C99.6179 223.176 95.7353 208.924 94.7414 209.124C93.7476 209.323 97.5881 224.43 97.5881 224.43C97.5881 224.43 92.2653 208.078 90.8504 208.81C89.4354 209.542 95.6089 226.273 95.6089 226.273C95.6089 226.273 88.7196 211.394 87.6668 211.926C86.614 212.458 92.5517 224.829 93.4276 226.681C92.6443 225.028 87.8689 215.147 86.8414 215.784C86.0918 216.249 88.4669 221.351 90.1176 224.677C88.6101 221.826 86.4034 217.883 85.9065 218.52C85.1738 219.518 89.8902 228.069 89.8902 228.069C89.8902 228.069 85.3759 220.515 84.5 221.294C83.6241 222.073 88.1216 228.62 88.1216 228.62C88.1216 228.62 84.2221 223.955 83.4725 224.819C82.7229 225.684 86.8414 229.731 86.8414 229.731C86.8414 229.731 84.9296 228.781 83.2956 228.116C81.0974 219.888 79.2614 211.546 77.7707 203.147C86.8246 202.587 101.664 199.622 103.433 187.366C105.673 171.86 100.906 189.551 100.906 189.551C100.906 189.551 101.488 175.3 99.9716 175.547C98.4556 175.794 98.7757 193.181 98.7757 193.181C98.7757 193.181 95.8869 174.711 95.4489 175.271C94.4719 176.525 94.514 180.022 94.893 184.003C94.2951 180.383 93.596 177.285 92.9559 177.514C91.4652 178.046 93.8908 195.261 93.8908 195.261C93.8908 195.261 91.3641 180.43 90.345 180.554C89.326 180.677 91.76 196.269 91.76 196.269C91.76 196.269 87.9784 179.167 86.4877 179.756C84.9969 180.345 89.6039 197.874 89.6039 197.874C89.6039 197.874 84.121 182.093 83.0346 182.492C81.9481 182.891 86.6982 196.117 87.3973 198.017C86.774 196.278 82.9335 185.751 81.8554 186.264C81.0638 186.635 82.9588 192.05 84.2895 195.594C83.0514 192.525 81.2238 188.316 80.6932 188.896C79.851 189.846 83.7673 198.967 83.7673 198.967C83.7673 198.967 79.9773 190.834 79.0256 191.509C78.0739 192.183 81.9565 199.309 81.9565 199.309C81.9565 199.309 77.897 194.188 77.0716 194.995C76.2463 195.803 80.5416 200.278 80.5416 200.278C80.5416 200.278 78.5287 198.929 76.9116 198.093C75.682 190.492 74.7387 182.815 74.0649 175.186C82.7987 176.383 92.7033 174.074 97.7987 165.048C105.716 150.996 95.5416 165.808 95.5416 165.808C95.5416 165.808 99.2473 152.222 97.3271 151.557C95.4068 150.892 92.9896 166.758 92.9896 166.758C92.9896 166.758 92.678 151.386 90.463 151.908C88.2479 152.431 90.9935 167.319 90.9935 167.319C90.9935 167.319 87.3299 153.067 85.5949 153.362C83.8599 153.656 88.6101 168.041 88.6101 168.041C88.6101 168.041 83.1104 155.69 81.5944 156.64C80.0784 157.59 85.8055 169.485 85.8055 169.485C85.8055 169.485 80.2384 158.274 78.9582 159.243C77.678 160.212 82.4871 169.39 82.9588 170.312C82.504 169.428 78.0907 161.048 77.0043 162.074C75.9178 163.1 80.5584 171.452 80.9627 172.164C80.5921 171.509 76.6168 164.564 75.5472 165.172C74.4776 165.78 78.4697 172.772 78.4697 172.772C78.4697 172.772 74.8987 167.499 73.8038 168.288C72.7089 169.077 76.3305 173.324 76.3305 173.324L73.888 174.074C73.8281 173.644 73.6286 173.254 73.3283 172.98C73.0279 172.706 72.6481 172.568 72.2625 172.592C71.8259 172.68 71.4376 172.959 71.1822 173.368C70.9267 173.777 70.8247 174.284 70.8981 174.777C70.9023 174.809 70.9023 174.841 70.8981 174.872L69.4074 174.473C69.4074 174.473 73.2395 170.815 73.029 169.723C72.8184 168.63 67.8661 173.523 67.8661 173.523C67.8661 173.523 71.4961 168.136 70.5781 167.471C69.6601 166.806 66.367 172.829 66.367 172.829C66.367 172.829 69.3063 164.782 68.2957 164.231C67.285 163.68 64.531 172.858 64.531 172.858C64.531 172.858 67.2934 162.606 66.3838 161.77C65.8448 161.267 64.6994 165.381 63.7982 168.744C64.6994 164.811 65.7774 159.433 65.011 159.157C64.0761 158.806 62.0464 167.214 61.1789 171.053C62.1559 166.568 64.472 155.528 63.5877 155.272C62.4759 154.958 58.6185 172.953 58.6185 172.953C59.3597 166.701 60.4799 152.725 60.0082 152.63C60.0082 152.63 56.7994 165.846 56.2603 171.632C56.2603 171.632 57.212 153.875 56.193 153.837C55.1739 153.799 54.0116 170.939 54.0116 170.939C54.1464 164.583 53.9021 150.616 53.4642 150.568L51.5776 170.673C51.5776 170.673 51.2828 148.174 50.9291 148.136C50.9291 148.136 48.9246 169.552 48.9162 169.552C48.9077 169.552 48.773 150.759 46.3895 148.725C45.7915 148.212 46.3895 165.666 46.3895 165.666C46.3895 165.666 40.0476 144.763 43.6523 163.461C46.2884 177.076 61.3389 177.438 71.0582 175.813C71.6646 182.679 72.5068 189.548 73.5848 196.421C72.2625 197.114 70.0896 201.77 70.0896 201.77C70.0896 201.77 73.1637 194.036 71.9762 193.532C70.7887 193.029 68.1693 200.012 67.6219 201.456C68.2283 199.86 71.3361 191.461 70.2159 190.606C69.0958 189.751 65.9038 198.454 65.3563 199.984C65.9206 198.378 69.2727 188.744 68.0346 187.965C66.7965 187.186 62.3749 199.793 62.3749 199.793C62.3749 199.793 66.7797 186.311 65.2131 185.542C63.6466 184.772 59.4102 198.843 59.4102 198.843C59.4102 198.843 62.7791 182.635 61.0357 182.473C59.2923 182.312 56.9594 198.492 56.9594 198.492C56.9594 198.492 58.3406 181.656 56.1172 181.209C53.8937 180.763 54.8622 198.15 54.8622 198.15C54.8622 198.15 51.0807 180.24 49.2025 181.181C47.3244 182.122 52.2261 197.589 52.2261 197.589C52.2261 197.589 40.8645 182.046 49.8931 197.095C55.2581 206.026 66.3586 206.454 74.6713 203.337C76.1536 211.774 77.9897 220.164 80.171 228.439C79.3798 229.846 78.6709 231.309 78.0486 232.819C78.0486 232.819 79.3877 224.753 78.3181 224.373C77.2485 223.993 76.2294 233.104 76.2294 233.104C76.2294 233.104 77.7286 222.815 76.7347 222.14C76.1283 221.731 75.4546 225.883 74.9998 229.247C75.4209 225.313 75.842 219.974 75.0503 219.812C74.0733 219.613 73.0795 228.031 72.6752 231.85C73.1048 227.404 74.0817 216.401 73.1721 216.278C72.0267 216.126 70.3675 234.026 70.3675 234.026C70.3675 227.907 71.4119 216.135 69.2979 214.226C68.7084 213.694 67.8661 233.095 67.8661 233.095C67.8661 233.095 66.6702 215.822 65.6595 215.917C64.6489 216.012 65.5585 232.743 65.5585 232.743C64.9352 226.605 63.0318 213.142 62.5601 213.161L63.0907 232.829C63.0907 232.829 60.1009 211.147 59.7219 211.166C59.7219 211.166 60.3114 232.069 60.303 232.069C60.2946 232.069 57.8942 213.96 55.3086 212.306C54.6348 211.879 57.3047 228.658 57.3047 228.658C57.3047 228.658 48.4698 209.314 54.3232 226.891C58.5343 239.403 72.6247 238.102 82.0576 235.308C83.7027 240.952 85.5107 246.529 87.4815 252.04C87.0185 253.836 86.7083 255.678 86.555 257.541C86.555 257.541 86.7993 248.99 85.5612 249.151C84.4495 249.256 84.2558 256.885 84.2305 258.482C84.2305 256.714 84.3063 247.584 83.0177 247.365C81.7291 247.147 81.7039 256.629 81.7123 258.292C81.7123 256.553 81.5522 246.14 80.1794 246.054C78.6803 245.959 78.975 259.641 78.975 259.641C78.975 259.641 78.5034 245.19 76.8358 245.266C75.1682 245.342 75.9936 260.258 75.9936 260.258C75.9936 260.258 73.6775 243.831 72.0604 244.581C70.4433 245.332 73.6943 261.208 73.6943 261.208C73.6943 261.208 69.3653 245.228 67.2176 246.007C65.07 246.786 71.7825 262.035 71.7825 262.035C71.7825 262.035 62.4675 247.783 61.1031 249.684C59.7387 251.584 69.2474 262.909 69.2474 262.909C69.2474 262.909 53.9358 254.985 67.0155 263.698C74.4944 268.686 83.5904 264.04 89.7555 258.187C94.7723 271.223 100.854 283.705 107.922 295.469C108.116 295.822 108.414 296.088 108.763 296.218C109.113 296.348 109.492 296.335 109.834 296.182C109.93 296.131 110.021 296.067 110.104 295.992C110.436 295.683 110.652 295.242 110.705 294.759C110.758 294.277 110.645 293.79 110.39 293.398C103.446 281.824 97.4716 269.546 92.5432 256.724C100.915 256.923 109.96 253.798 114.138 244.828C120.833 230.482 111.965 245.798 111.965 245.798Z" fill="black"/>
<path d="M139.371 244.448C139.371 244.448 145.325 228.059 142.925 226.938C140.525 225.817 136.01 245.199 136.01 245.199C136.01 245.199 136.962 226.073 134.073 226.406C131.184 226.738 133.408 245.626 133.408 245.626C133.408 245.626 129.946 227.47 127.698 227.47C125.449 227.47 130.275 246.158 130.275 246.158C130.275 246.158 124.287 230.007 122.265 230.852C120.244 231.698 126.535 247.498 126.535 247.498C126.535 247.498 120.37 232.667 118.635 233.664C116.9 234.662 122.248 246.823 122.796 248.078C122.265 246.871 117.364 235.726 115.873 236.847C114.382 237.968 119.612 249.151 120.084 250.092C119.68 249.237 115.191 239.831 113.75 240.458C112.31 241.085 116.816 250.462 116.816 250.462C116.816 250.462 113.489 243.27 112.007 244.068C110.525 244.866 114.054 250.795 114.054 250.795L112.058 251.118C110.036 241.142 108.453 231.033 107.265 220.867C118.947 221.038 138.032 218.767 141.358 203.432C145.57 183.926 137.914 205.95 137.914 205.95C137.914 205.95 139.876 187.803 137.914 187.983C135.951 188.164 134.873 210.368 134.873 210.368C134.873 210.368 133.829 186.682 132.119 187.176C130.671 187.603 131.277 205.171 131.479 210.425C131.252 205.408 130.384 189.323 128.725 189.76C126.754 190.292 128.405 212.496 128.405 212.496C128.405 212.496 126.409 193.313 125.095 193.37C123.781 193.427 125.575 213.551 125.575 213.551C125.575 213.551 122.156 191.394 120.193 191.945C118.231 192.496 122.661 215.375 122.661 215.375C122.661 215.375 116.951 194.672 115.511 195.071C114.07 195.47 119.073 212.743 119.806 215.327C119.141 213.019 115.106 199.176 113.675 199.755C112.63 200.145 114.593 207.252 116.008 211.917C114.685 207.869 112.639 202.311 111.948 202.995C110.803 204.069 115.047 216.164 115.047 216.164C115.047 216.164 110.836 205.389 109.581 206.159C108.326 206.929 112.689 216.411 112.689 216.411C112.689 216.411 108.689 209.456 107.552 210.406C106.415 211.356 110.786 217.503 110.786 217.503C110.786 217.503 108.545 215.764 106.575 214.529C105.48 203.508 104.89 192.43 104.688 181.371C116.302 183.014 135.766 183.119 140.533 168.069C146.563 148.953 136.878 170.188 136.878 170.188C136.878 170.188 140.541 152.183 138.562 152.136C136.583 152.088 133.425 174.235 133.425 174.235C133.425 174.235 133.543 150.017 132.869 150.616C131.37 151.955 130.696 156.421 130.342 161.551C130.342 156.801 130.081 152.677 129.222 152.801C127.209 153.095 126.763 175.604 126.763 175.604C126.763 175.604 126.586 156.098 125.272 155.993C123.958 155.889 123.849 176.326 123.849 176.326C123.849 176.326 122.543 153.656 120.53 153.97C118.517 154.283 120.775 177.798 120.775 177.798C120.775 177.798 117.06 156.316 115.586 156.544C114.113 156.772 117.465 174.739 117.953 177.447C117.507 175.071 114.786 160.696 113.312 161.067C112.234 161.333 113.523 168.668 114.5 173.561C113.557 169.333 112.091 163.509 111.291 164.107C110.053 165.057 113.136 177.703 113.136 177.703C113.136 177.703 109.994 166.378 108.647 166.996C107.299 167.613 110.769 177.665 110.769 177.665C110.769 177.665 106.659 170.064 105.446 170.91C104.233 171.756 108.815 178.511 108.815 178.511C108.815 178.511 106.533 176.269 104.604 174.777C104.604 164.782 104.983 154.825 105.69 144.934C116.538 148.735 129.601 148.392 137.922 138.283C150.876 122.502 134.899 138.654 134.899 138.654C134.899 138.654 142.403 122.36 140.112 120.953C137.821 119.547 131.504 139.005 131.504 139.005C131.504 139.005 134.275 119.395 131.361 119.481C128.447 119.566 128.835 139.205 128.835 139.205C128.835 139.205 127.1 120.203 124.842 120.06C122.585 119.918 125.685 139.49 125.685 139.49C125.685 139.49 121.221 122.388 119.124 123.129C117.027 123.87 121.827 140.545 121.827 140.545C121.827 140.545 117.06 124.858 115.233 125.751C113.405 126.645 117.625 139.566 118.046 140.858C117.641 139.613 113.759 127.813 112.15 128.83C110.542 129.846 114.744 141.675 115.106 142.692C114.769 141.742 111.165 131.842 109.666 132.393C108.166 132.944 111.813 142.844 111.813 142.844C111.813 142.844 108.36 135.243 106.81 135.937C105.261 136.63 109.026 142.986 109.026 142.986L105.775 143.309C105.785 142.746 105.61 142.198 105.283 141.772C104.956 141.346 104.501 141.071 104.006 141.001C103.436 141.01 102.891 141.267 102.485 141.719C102.078 142.17 101.842 142.78 101.825 143.423C101.829 143.464 101.829 143.506 101.825 143.547L100.014 142.644C100.014 142.644 105.631 139.005 105.581 137.609C105.53 136.212 98.2451 141.086 98.2451 141.086C98.2451 141.086 103.955 135.195 102.928 134.103C101.9 133.01 96.4259 139.804 96.4259 139.804C96.4259 139.804 101.816 130.35 100.637 129.352C99.4579 128.355 94.0929 139.328 94.0929 139.328C94.0929 139.328 99.7021 127.025 98.7252 125.732C98.1356 124.953 95.7858 129.865 94.0003 133.922C95.9542 129.172 98.422 122.597 97.5124 122.046C96.3922 121.362 92.0969 131.547 90.1934 136.155C92.358 130.72 97.5713 117.305 96.5017 116.744C95.1541 116.051 86.5635 137.903 86.5635 137.903C88.7785 130.15 93.0654 112.697 92.5011 112.45C92.5011 112.45 85.696 128.402 83.8347 135.633C83.8347 135.633 88.6775 113.315 87.3973 112.992C86.1171 112.668 81.1143 134.179 81.1143 134.179C82.5882 126.141 85.1485 108.326 84.5927 108.155L78.057 133.21C78.057 133.21 82.2681 104.545 81.8639 104.403C81.8639 104.403 74.9156 131.091 74.9071 131.091C74.8987 131.091 78.5876 107.177 75.9936 103.975C75.3367 103.158 72.4731 125.485 72.4731 125.485C72.4731 125.485 68.7 97.3148 69.4495 121.97C70.0054 139.965 89.0901 144.355 101.74 144.773C101.111 153.64 100.758 162.587 100.679 171.613C98.8515 172.145 95.1457 177.494 95.1457 177.494C95.1457 177.494 100.629 168.478 99.2221 167.518C97.9672 166.663 93.0654 174.767 92.0632 176.449C93.1581 174.549 98.8431 164.725 97.5882 163.347C96.3332 161.969 90.4966 172.193 89.486 173.988C90.5388 172.088 96.7712 160.687 95.3815 159.414C93.8403 157.989 85.7634 172.972 85.7634 172.972C85.7634 172.972 94.1266 156.991 92.299 155.594C90.4714 154.198 82.1923 170.929 82.1923 170.929C82.1923 170.929 89.7723 151.214 87.6247 150.559C85.477 149.903 79.2025 169.846 79.2025 169.846C79.2025 169.846 84.34 148.849 81.6112 147.661C78.8824 146.473 76.6084 168.953 76.6084 168.953C76.6084 168.953 75.4798 145.2 72.8942 145.922C70.3086 146.644 73.3911 167.613 73.3911 167.613C73.3911 167.613 62.1559 144.896 70.536 166.359C75.5135 179.119 89.5365 182.568 100.73 180.763C100.89 191.879 101.496 203.024 102.574 214.102C101.276 215.679 100.071 217.352 98.9694 219.109C98.9694 219.109 102.338 209.218 101.05 208.449C99.7611 207.679 96.6028 219.004 96.6028 219.004C96.6028 219.004 100.62 206.32 99.4916 205.199C98.8178 204.525 97.0997 209.617 95.8363 213.75C97.1755 208.867 98.8094 202.187 97.8324 201.769C96.6364 201.266 93.6213 211.708 92.3495 216.449C93.8066 210.909 97.3018 197.18 96.1732 196.791C94.7583 196.297 88.9722 218.643 88.9722 218.643C90.2019 210.862 93.9666 196.183 91.6758 193.199C91.0357 192.363 85.9908 216.8 85.9908 216.8C85.9908 216.8 88.0121 194.549 86.6982 194.406C85.3844 194.264 83.1188 215.755 83.1188 215.755C83.5904 207.793 83.9105 190.178 83.3209 190.102L79.952 215.223C79.952 215.223 80.609 186.9 80.1373 186.824C80.1373 186.824 76.5831 213.579 76.5747 213.579C76.5663 213.579 77.2317 189.941 74.2923 187.157C73.5175 186.435 73.4501 208.458 73.4501 208.458C73.4501 208.458 66.1986 181.57 70.0222 205.427C72.751 222.415 90.9767 224.429 103.534 223.375C104.461 230.976 105.612 238.532 106.987 246.044C106.031 248.204 105.261 250.463 104.688 252.79C104.688 252.79 106.743 242.035 105.143 241.873C103.711 241.721 101.9 251.374 101.538 253.379C101.926 251.146 103.871 239.555 102.279 238.947C100.688 238.339 98.7083 250.348 98.3714 252.486C98.7083 250.272 100.662 236.999 98.9357 236.534C97.0576 236.021 94.6235 253.484 94.6235 253.484C94.6235 253.484 96.9902 234.995 94.8594 234.662C92.7285 234.33 90.7072 253.493 90.7072 253.493C90.7072 253.493 91.1367 232.011 88.9217 232.543C86.7067 233.075 87.6078 254.073 87.6078 254.073C87.6078 254.073 85.3844 232.638 82.504 233.056C79.6236 233.474 85.0306 254.605 85.0306 254.605C85.0306 254.605 76.0947 234.121 73.9807 236.144C71.8667 238.168 81.6112 255.08 81.6112 255.08C81.6112 255.08 63.773 241.009 78.6045 255.498C87.0857 263.783 99.5926 260.248 108.655 254.434C112.344 272.292 117.501 289.722 124.059 306.5C124.232 306.999 124.556 307.415 124.973 307.672C125.391 307.929 125.875 308.012 126.342 307.906C126.476 307.869 126.606 307.815 126.729 307.744C127.212 307.435 127.573 306.931 127.739 306.333C127.905 305.735 127.863 305.088 127.622 304.523C121.163 287.991 116.088 270.815 112.462 253.218C123.049 255.659 135.202 254.044 142.327 243.717C153.781 227.308 139.371 244.448 139.371 244.448Z" fill="#CBD1F8" stroke="#263238" stroke-width="0.772628" stroke-miterlimit="10"/>
<path d="M114.77 297.578C114.77 297.578 119.772 290.747 128.245 295.203C128.245 295.203 139.826 293.122 146.151 302.034C146.151 302.034 153.781 298.471 158.784 304.704C158.784 304.704 165.16 305.911 165.631 308.267C165.631 308.267 173.801 303.516 176.167 308.267C176.167 308.267 188.54 304.115 192.229 310.348C195.918 316.58 186.173 323.127 186.173 323.127H167.964L139.522 320.153L124.767 310.348L114.77 297.578Z" fill="#858585" stroke="#263238" stroke-width="1.03017" stroke-linecap="round" stroke-linejoin="round"/>
<path d="M284.343 309.283C284.453 298.576 271.179 307.079 271.179 307.079C269.495 296.552 261.443 306.49 261.443 306.49C255.387 299.953 244.321 313.027 244.321 313.027C243.798 308.571 236.16 310.642 236.16 310.642C234.054 300.846 219.576 309.454 219.576 309.454C217.732 301.739 209.832 307.383 209.832 307.383C203.776 299.953 199.034 309.454 199.034 309.454C192.979 305.597 186.662 311.241 186.662 311.241C183.234 308.267 178.493 313.027 178.493 313.027C175.073 308.865 163.745 310.946 163.745 310.946C156.115 303.811 145.317 307.972 145.317 307.972C139.784 302.034 134.781 304.704 134.781 304.704C132.154 298.167 127.151 299.659 127.151 299.659C124.776 295.203 118.99 295.497 118.99 295.497C113.456 289.854 106.087 292.827 106.087 292.827C100.292 285.103 92.3923 291.64 92.3923 291.64C87.6506 281.54 78.1756 285.996 78.1756 285.996C70.7135 277.065 63.8578 278.462 59.4277 281.246C75.689 307.377 98.1222 327.838 124.178 340.304C129.57 342.885 135.367 344.219 141.224 344.228H224.444C230.305 344.221 236.104 342.886 241.499 340.304C257.236 332.779 271.724 322.289 284.343 309.283Z" fill="#263238" stroke="#263238" stroke-width="0.772628" stroke-linecap="round" stroke-linejoin="round"/>
<path d="M89.6206 297.15C88.9132 299.592 86.0075 295.811 81.5522 294.167C77.0968 292.523 72.7678 293.625 73.4753 291.174C74.1827 288.723 78.377 288.086 82.8408 289.73C87.3045 291.374 90.3365 294.699 89.6206 297.15Z" fill="#858585" stroke="#263238" stroke-width="1.03017" stroke-linecap="round" stroke-linejoin="round"/>
<path d="M270.951 311.697C271.6 314.167 267.304 312.904 262.798 314.405C258.292 315.906 255.303 319.583 254.654 317.113C254.006 314.642 257.13 311.412 261.636 309.93C266.142 308.448 270.303 309.227 270.951 311.697Z" fill="#999999" stroke="#263238" stroke-width="1.03017" stroke-linecap="round" stroke-linejoin="round"/>
<path d="M103.197 306.519C102.725 308.514 100.249 305.635 96.6022 304.533C92.9553 303.431 89.5443 304.533 90.016 302.557C90.4876 300.58 93.8228 299.82 97.4612 300.922C101.1 302.025 103.711 304.523 103.197 306.519Z" fill="#999999" stroke="#263238" stroke-width="1.03017" stroke-linecap="round" stroke-linejoin="round"/>
<path d="M142.84 309.663C142.84 311.307 140.415 309.739 137.416 309.825C134.418 309.91 132.026 311.639 131.984 309.996C131.942 308.352 134.342 306.936 137.34 306.851C140.339 306.765 142.806 308.019 142.84 309.663Z" fill="#858585" stroke="#263238" stroke-width="1.03017" stroke-linecap="round" stroke-linejoin="round"/>
<path d="M123.243 307.925C123.243 309.606 120.766 307.972 117.701 308.02C114.635 308.067 112.184 309.787 112.159 308.105C112.134 306.423 114.601 305.027 117.667 304.979C120.733 304.932 123.226 306.252 123.243 307.925Z" fill="#858585" stroke="#263238" stroke-width="1.03017" stroke-linecap="round" stroke-linejoin="round"/>
<path d="M128.666 304.676C128.574 305.958 126.771 304.495 124.455 304.276C122.139 304.058 120.126 305.16 120.244 303.877C120.362 302.595 122.316 301.73 124.649 301.977C126.982 302.224 128.767 303.393 128.666 304.676Z" fill="#999999" stroke="#263238" stroke-width="1.03017" stroke-linecap="round" stroke-linejoin="round"/>
<path d="M232.571 311.82C232.47 313.103 230.676 311.649 228.36 311.421C226.044 311.193 224.031 312.305 224.149 311.022C224.267 309.739 226.221 308.884 228.554 309.122C230.887 309.359 232.639 310.537 232.571 311.82Z" fill="#858585" stroke="#263238" stroke-width="1.03017" stroke-linecap="round" stroke-linejoin="round"/>
<path d="M253.627 316.846C253.534 318.129 251.732 316.666 249.416 316.447C247.1 316.229 245.087 317.331 245.205 316.048C245.323 314.766 247.268 313.901 249.609 314.148C251.951 314.395 253.745 315.564 253.627 316.846Z" fill="#858585" stroke="#263238" stroke-width="1.03017" stroke-linecap="round" stroke-linejoin="round"/>
<path d="M208.088 311.697C208.256 312.97 206.21 312.001 203.877 312.381C201.544 312.761 199.842 314.348 199.666 313.075C199.489 311.801 201.249 310.452 203.573 310.072C205.898 309.692 207.928 310.424 208.088 311.697Z" fill="#858585" stroke="#263238" stroke-width="1.03017" stroke-linecap="round" stroke-linejoin="round"/>
<path d="M134.688 314.423C134.595 315.716 132.793 314.252 130.477 314.024C128.161 313.796 126.148 314.908 126.266 313.625C126.384 312.343 128.338 311.488 130.67 311.725C133.003 311.963 134.789 313.141 134.688 314.423Z" fill="#858585" stroke="#263238" stroke-width="1.03017" stroke-linecap="round" stroke-linejoin="round"/>
<path d="M153.891 314.424C153.798 315.716 151.996 314.253 149.68 314.025C147.364 313.797 145.351 314.909 145.469 313.626C145.587 312.343 147.541 311.488 149.874 311.726C152.207 311.963 153.992 313.141 153.891 314.424Z" fill="#999999" stroke="#263238" stroke-width="1.03017" stroke-linecap="round" stroke-linejoin="round"/>
<path d="M200.129 316.067C200.028 317.35 198.225 315.887 195.918 315.668C193.61 315.45 191.589 316.552 191.707 315.269C191.824 313.986 193.778 313.122 196.111 313.369C198.444 313.616 200.221 314.784 200.129 316.067Z" fill="#999999" stroke="#263238" stroke-width="1.03017" stroke-linecap="round" stroke-linejoin="round"/>
<path d="M107.08 295.659C106.987 297.559 104.259 295.488 100.789 295.279C97.3186 295.07 94.4466 296.828 94.4887 294.927C94.5308 293.027 97.4702 291.64 100.949 291.849C104.427 292.058 107.164 293.749 107.08 295.659Z" fill="#858585" stroke="#263238" stroke-width="1.03017" stroke-linecap="round" stroke-linejoin="round"/>
<path d="M121.659 298.994C121.465 300.514 119.402 298.633 116.606 298.196C113.809 297.759 111.384 298.918 111.552 297.398C111.721 295.878 114.146 294.985 116.926 295.431C119.705 295.878 121.844 297.464 121.659 298.994Z" fill="#858585" stroke="#263238" stroke-width="1.03017" stroke-linecap="round" stroke-linejoin="round"/>
<path d="M114.77 301.797C114.686 303.697 111.948 301.635 108.478 301.426C105.008 301.217 102.094 302.965 102.179 301.056C102.263 299.146 105.16 297.768 108.638 297.968C112.117 298.167 114.862 299.897 114.77 301.797Z" fill="#858585" stroke="#263238" stroke-width="1.03017" stroke-linecap="round" stroke-linejoin="round"/>
<path d="M221.04 313.977C221.158 315.877 218.227 314.196 214.749 314.462C211.271 314.728 208.584 316.847 208.466 314.946C208.348 313.046 211.069 311.279 214.547 311.013C218.025 310.747 220.923 312.029 221.04 313.977Z" fill="#858585" stroke="#263238" stroke-width="1.03017" stroke-linecap="round" stroke-linejoin="round"/>
<path d="M268.5 288.818C272.324 288.818 275.423 285.321 275.423 281.008C275.423 276.695 272.324 273.198 268.5 273.198C264.677 273.198 261.577 276.695 261.577 281.008C261.577 285.321 264.677 288.818 268.5 288.818Z" fill="white" stroke="#263238" stroke-width="1.03017" stroke-linecap="round" stroke-linejoin="round"/>
<path d="M272.837 282.852C272.677 283.344 272.449 283.806 272.164 284.22L272.837 282.852Z" fill="white"/>
<path d="M272.837 282.852C272.677 283.344 272.449 283.806 272.164 284.22" stroke="#263238" stroke-width="1.03017" stroke-linecap="round" stroke-linejoin="round"/>
<path d="M268.5 275.783C269.729 275.783 270.907 276.333 271.776 277.313C272.645 278.293 273.133 279.622 273.133 281.008" fill="white"/>
<path d="M268.5 275.783C269.729 275.783 270.907 276.333 271.776 277.313C272.645 278.293 273.133 279.622 273.133 281.008" stroke="#263238" stroke-width="1.03017" stroke-linecap="round" stroke-linejoin="round"/>
<path d="M288.09 200.468C288.09 201.582 287.797 202.672 287.248 203.598C286.699 204.525 285.919 205.247 285.007 205.673C284.094 206.1 283.09 206.211 282.121 205.994C281.152 205.777 280.262 205.24 279.564 204.452C278.865 203.664 278.39 202.66 278.197 201.567C278.004 200.474 278.103 199.342 278.481 198.312C278.859 197.283 279.499 196.403 280.321 195.784C281.142 195.164 282.108 194.834 283.095 194.834C283.751 194.834 284.401 194.98 285.007 195.263C285.613 195.546 286.163 195.961 286.627 196.484C287.091 197.007 287.459 197.628 287.71 198.312C287.961 198.996 288.09 199.728 288.09 200.468Z" fill="white" stroke="#263238" stroke-width="0.772628" stroke-linecap="round" stroke-linejoin="round"/>
<path d="M286.229 201.817C286.109 202.159 285.944 202.479 285.74 202.767L286.229 201.817Z" fill="white"/>
<path d="M286.229 201.817C286.109 202.159 285.944 202.479 285.74 202.767" stroke="#263238" stroke-width="0.772628" stroke-linecap="round" stroke-linejoin="round"/>
<path d="M283.104 196.696C283.997 196.696 284.854 197.096 285.486 197.809C286.118 198.522 286.473 199.488 286.473 200.496" fill="white"/>
<path d="M283.104 196.696C283.997 196.696 284.854 197.096 285.486 197.809C286.118 198.522 286.473 199.488 286.473 200.496" stroke="#263238" stroke-width="0.772628" stroke-linecap="round" stroke-linejoin="round"/>
<path d="M271.001 146.711C271.003 147.825 270.712 148.916 270.164 149.843C269.616 150.771 268.837 151.495 267.924 151.923C267.012 152.35 266.007 152.463 265.038 152.247C264.069 152.031 263.178 151.495 262.479 150.707C261.779 149.92 261.303 148.916 261.109 147.823C260.916 146.73 261.014 145.596 261.392 144.566C261.77 143.536 262.41 142.656 263.231 142.036C264.053 141.417 265.019 141.086 266.007 141.086C266.663 141.085 267.312 141.229 267.918 141.511C268.524 141.793 269.074 142.208 269.538 142.73C270.002 143.252 270.37 143.873 270.621 144.556C270.872 145.239 271.001 145.971 271.001 146.711Z" fill="white" stroke="#263238" stroke-width="0.772628" stroke-linecap="round" stroke-linejoin="round"/>
<path d="M269.14 148.069C269.022 148.413 268.857 148.733 268.651 149.019L269.14 148.069Z" fill="white"/>
<path d="M269.14 148.069C269.022 148.413 268.857 148.733 268.651 149.019" stroke="#263238" stroke-width="0.772628" stroke-linecap="round" stroke-linejoin="round"/>
<path d="M266.007 142.967C266.9 142.967 267.757 143.368 268.389 144.08C269.021 144.793 269.376 145.76 269.376 146.768" fill="white"/>
<path d="M266.007 142.967C266.9 142.967 267.757 143.368 268.389 144.08C269.021 144.793 269.376 145.76 269.376 146.768" stroke="#263238" stroke-width="0.772628" stroke-linecap="round" stroke-linejoin="round"/>
<path d="M284.208 271.099C288.031 271.099 291.131 267.602 291.131 263.289C291.131 258.976 288.031 255.479 284.208 255.479C280.384 255.479 277.285 258.976 277.285 263.289C277.285 267.602 280.384 271.099 284.208 271.099Z" fill="white" stroke="#263238" stroke-width="1.03017" stroke-linecap="round" stroke-linejoin="round"/>
<path d="M286.953 259.07C287.54 259.557 288.017 260.192 288.346 260.925C288.675 261.658 288.847 262.467 288.848 263.289" fill="white"/>
<path d="M286.953 259.07C287.54 259.557 288.017 260.192 288.346 260.925C288.675 261.658 288.847 262.467 288.848 263.289" stroke="#263238" stroke-width="1.03017" stroke-linecap="round" stroke-linejoin="round"/>
<path d="M284.208 258.054C284.709 258.057 285.206 258.15 285.681 258.329L284.208 258.054Z" fill="white"/>
<path d="M284.208 258.054C284.709 258.057 285.206 258.15 285.681 258.329" stroke="#263238" stroke-width="1.03017" stroke-linecap="round" stroke-linejoin="round"/>
<path d="M288.622 142.614C292.694 138.02 292.694 130.573 288.622 125.979C284.55 121.386 277.948 121.386 273.876 125.979C269.804 130.573 269.804 138.02 273.876 142.614C277.948 147.207 284.55 147.207 288.622 142.614Z" fill="white" stroke="#263238" stroke-width="1.03017" stroke-linecap="round" stroke-linejoin="round"/>
<path d="M285.386 127.946C286.269 128.68 286.986 129.638 287.481 130.742C287.975 131.846 288.233 133.066 288.233 134.303" fill="white"/>
<path d="M285.386 127.946C286.269 128.68 286.986 129.638 287.481 130.742C287.975 131.846 288.233 133.066 288.233 134.303" stroke="#263238" stroke-width="1.03017" stroke-linecap="round" stroke-linejoin="round"/>
<path d="M281.251 126.417C282.007 126.42 282.757 126.558 283.475 126.825L281.251 126.417Z" fill="white"/>
<path d="M281.251 126.417C282.007 126.42 282.757 126.558 283.475 126.825" stroke="#263238" stroke-width="1.03017" stroke-linecap="round" stroke-linejoin="round"/>
<path d="M285.025 245.19C290.332 245.19 294.635 240.336 294.635 234.349C294.635 228.362 290.332 223.508 285.025 223.508C279.717 223.508 275.415 228.362 275.415 234.349C275.415 240.336 279.717 245.19 285.025 245.19Z" fill="white" stroke="#263238" stroke-width="1.03017" stroke-linecap="round" stroke-linejoin="round"/>
<path d="M288.84 228.496C289.654 229.171 290.316 230.052 290.772 231.069C291.229 232.086 291.467 233.209 291.468 234.349" fill="white"/>
<path d="M288.84 228.496C289.654 229.171 290.316 230.052 290.772 231.069C291.229 232.086 291.467 233.209 291.468 234.349" stroke="#263238" stroke-width="1.03017" stroke-linecap="round" stroke-linejoin="round"/>
<path d="M285.024 227.09C285.722 227.091 286.416 227.216 287.079 227.46L285.024 227.09Z" fill="white"/>
<path d="M285.024 227.09C285.722 227.091 286.416 227.216 287.079 227.46" stroke="#263238" stroke-width="1.03017" stroke-linecap="round" stroke-linejoin="round"/>
<path d="M261.939 207.442C264.591 207.442 266.74 205.017 266.74 202.026C266.74 199.035 264.591 196.61 261.939 196.61C259.288 196.61 257.139 199.035 257.139 202.026C257.139 205.017 259.288 207.442 261.939 207.442Z" fill="white" stroke="#263238" stroke-width="0.772628" stroke-linecap="round" stroke-linejoin="round"/>
<path d="M263.842 199.1C264.25 199.437 264.581 199.878 264.809 200.386C265.037 200.895 265.156 201.457 265.156 202.026" fill="white"/>
<path d="M263.842 199.1C264.25 199.437 264.581 199.878 264.809 200.386C265.037 200.895 265.156 201.457 265.156 202.026" stroke="#263238" stroke-width="0.772628" stroke-linecap="round" stroke-linejoin="round"/>
<path d="M261.939 198.397C262.289 198.397 262.636 198.462 262.967 198.587L261.939 198.397Z" fill="white"/>
<path d="M261.939 198.397C262.289 198.397 262.636 198.462 262.967 198.587" stroke="#263238" stroke-width="0.772628" stroke-linecap="round" stroke-linejoin="round"/>
<path d="M192.146 234.967C190.571 238.767 190.166 245.855 192.146 256.097C194.125 266.339 199.658 279.365 203.204 269.968C206.75 260.572 208.645 263.08 210.464 255.166C212.283 247.251 212.612 240.268 210.792 234.967C208.973 229.665 205.217 239.499 197.014 233.665C195.91 232.905 193.51 231.613 192.146 234.967Z" fill="white"/>
<mask id="mask0_468_44690" style="mask-type:luminance" maskUnits="userSpaceOnUse" x="190" y="232" width="23" height="42">
<path d="M192.146 234.967C190.571 238.767 190.166 245.855 192.146 256.097C194.125 266.339 199.658 279.365 203.204 269.968C206.75 260.572 208.645 263.08 210.464 255.166C212.283 247.251 212.612 240.268 210.792 234.967C208.973 229.665 205.217 239.499 197.014 233.665C195.91 232.905 193.51 231.613 192.146 234.967Z" fill="white"/>
</mask>
<g mask="url(#mask0_468_44690)">
<path d="M203.187 235.508C200.987 235.75 198.782 235.096 196.972 233.665C195.91 232.905 193.51 231.613 192.103 234.967C190.798 238.092 190.301 243.517 191.303 251.118C193.038 254.377 196.315 257.475 201.359 250.738C205.747 244.933 205.2 239.632 203.187 235.508Z" fill="#CBD1F8"/>
<path opacity="0.2" d="M203.187 235.508C200.987 235.75 198.782 235.096 196.972 233.665C195.91 232.905 193.51 231.613 192.103 234.967C190.798 238.092 190.301 243.517 191.303 251.118C193.038 254.377 196.315 257.475 201.359 250.738C205.747 244.933 205.2 239.632 203.187 235.508Z" fill="black"/>
</g>
<path d="M192.146 234.967C190.571 238.767 190.166 245.855 192.146 256.097C194.125 266.339 199.658 279.365 203.204 269.968C206.75 260.572 208.645 263.08 210.464 255.166C212.283 247.251 212.612 240.268 210.792 234.967C208.973 229.665 205.217 239.499 197.014 233.665C195.91 232.905 193.51 231.613 192.146 234.967Z" stroke="#263238" stroke-width="1.03017" stroke-linecap="round" stroke-linejoin="round"/>
<path d="M199.346 261.769C199.806 262.702 200.315 263.603 200.871 264.467" stroke="#263238" stroke-width="0.772628" stroke-linecap="round" stroke-linejoin="round"/>
<path d="M193.603 238.918C193.603 238.918 194.521 250.073 198.176 259.156" stroke="#263238" stroke-width="0.772628" stroke-linecap="round" stroke-linejoin="round"/>
<path d="M198.041 244.239C199.633 248.306 202.042 253.36 205.208 257.075" stroke="#263238" stroke-width="0.772628" stroke-linecap="round" stroke-linejoin="round"/>
<path d="M196.517 240.087C196.727 240.723 196.971 241.446 197.258 242.225" stroke="#263238" stroke-width="0.772628" stroke-linecap="round" stroke-linejoin="round"/>
<path d="M199.22 238.918C201.402 241.408 204.998 244.695 208.03 243.526" stroke="#263238" stroke-width="0.772628" stroke-linecap="round" stroke-linejoin="round"/>
<path d="M157.808 197.361C157.808 197.361 157.21 186.91 167.283 181.779C177.356 176.649 181.693 178.207 181.693 178.207C181.693 178.207 191.564 166.625 203.591 171.081C215.618 175.537 219.981 187.565 223.729 187.347C227.476 187.128 245.845 164.848 263.414 158.616C280.983 152.383 278.616 165.741 275.66 171.528C272.704 177.314 275.264 181.779 259.86 191.793C244.456 201.807 256.154 201.152 241.718 201.817C241.718 201.817 249.812 203.128 251.589 208.04C253.366 212.952 263.633 220.753 264.425 232.334C265.216 243.916 265.014 260.172 248.035 243.916C231.056 227.66 229.077 224.315 226.137 218.966C223.198 213.617 220.014 211.622 219.029 216.525C218.044 221.427 217.252 232.553 201.452 236.344C185.652 240.135 178.552 228.543 173.819 225.209C169.085 221.874 163.35 213.807 158.608 211.622C153.866 209.437 154.245 198.482 157.808 197.361Z" fill="white"/>
<mask id="mask1_468_44690" style="mask-type:luminance" maskUnits="userSpaceOnUse" x="155" y="156" width="123" height="95">
<path d="M157.808 197.361C157.808 197.361 157.21 186.91 167.283 181.779C177.356 176.649 181.693 178.207 181.693 178.207C181.693 178.207 191.564 166.625 203.591 171.081C215.618 175.537 219.981 187.565 223.729 187.347C227.476 187.128 245.845 164.848 263.414 158.616C280.983 152.383 278.616 165.741 275.66 171.528C272.704 177.314 275.264 181.779 259.86 191.793C244.456 201.807 256.154 201.152 241.718 201.817C241.718 201.817 249.812 203.128 251.589 208.04C253.366 212.952 263.633 220.753 264.425 232.334C265.216 243.916 265.014 260.172 248.035 243.916C231.056 227.66 229.077 224.315 226.137 218.966C223.198 213.617 220.014 211.622 219.029 216.525C218.044 221.427 217.252 232.553 201.452 236.344C185.652 240.135 178.552 228.543 173.819 225.209C169.085 221.874 163.35 213.807 158.608 211.622C153.866 209.437 154.245 198.482 157.808 197.361Z" fill="white"/>
</mask>
<g mask="url(#mask1_468_44690)">
<path d="M236.202 202.016C241.651 197.636 238.307 197.874 237.937 194.843C237.566 191.812 246.359 180.002 244.371 176.231C243.386 174.33 240.691 174.625 238.248 175.375C231.073 181.694 225.615 187.233 223.745 187.347C219.998 187.565 215.652 175.537 203.608 171.081C191.564 166.625 181.71 178.207 181.71 178.207C181.71 178.207 177.364 176.649 167.3 181.779C157.235 186.91 157.825 197.361 157.825 197.361C155.298 198.159 154.355 204.012 155.77 208.04C155.896 203.413 163.939 209.18 168.639 213.741C173.338 218.301 179.824 214.881 182.872 214.501C185.921 214.121 187.58 209.893 189.779 210.947C191.977 212.002 187.084 216.458 188.313 217.598C189.543 218.738 193.148 215.897 196.121 210.871C199.094 205.845 203.423 199.29 210.228 202.776C217.033 206.263 216.671 225.189 216.671 225.189C217.818 222.449 218.612 219.537 219.029 216.543C220.014 211.641 223.173 213.646 226.137 218.985C226.811 220.22 227.443 221.342 228.218 222.539C230.197 225.446 234.627 226.624 238.08 222.605C241.651 218.396 230.761 206.387 236.202 202.016ZM189.037 178.321C188.851 178.318 188.669 178.25 188.518 178.128C188.366 178.005 188.25 177.834 188.187 177.635C188.124 177.437 188.116 177.222 188.164 177.019C188.212 176.815 188.314 176.633 188.456 176.497C190.486 174.596 194.596 171.927 200.913 172.867C201.109 172.899 201.292 173.001 201.433 173.159C201.574 173.317 201.666 173.521 201.696 173.743C201.726 173.964 201.693 174.19 201.6 174.389C201.508 174.587 201.361 174.746 201.182 174.843C198.487 176.297 193.83 178.34 189.029 178.321H189.037ZM205.436 199.461C203.498 200.154 200.306 200.981 198.083 199.86C197.635 199.63 197.265 199.246 197.024 198.762C196.784 198.279 196.687 197.721 196.747 197.171C196.807 196.62 197.021 196.106 197.359 195.703C197.696 195.3 198.138 195.028 198.622 194.929C199.551 194.741 200.499 194.713 201.435 194.843C203.101 195.028 204.669 195.814 205.907 197.085C206.065 197.254 206.182 197.467 206.245 197.702C206.308 197.938 206.316 198.188 206.267 198.427C206.219 198.667 206.116 198.888 205.969 199.07C205.821 199.251 205.635 199.385 205.427 199.461H205.436ZM221.236 192.392C221.096 192.267 220.987 192.103 220.92 191.917C220.853 191.73 220.831 191.527 220.855 191.328C220.878 191.129 220.948 190.94 221.056 190.78C221.164 190.62 221.307 190.494 221.471 190.416C222.912 189.741 224.933 188.981 225.32 189.77C225.885 190.929 225.716 196.363 221.227 192.392H221.236Z" fill="#CBD1F8"/>
<path opacity="0.2" d="M214.7 199.46C214.52 199.202 214.399 198.897 214.349 198.574C214.298 198.251 214.318 197.918 214.408 197.605C214.498 197.293 214.654 197.01 214.864 196.782C215.073 196.554 215.329 196.387 215.609 196.297C218.894 195.232 224.099 194.073 224.326 197.247C224.663 201.893 223.113 210.605 220.839 209.788C218.869 209.095 217.908 204.154 214.7 199.46Z" fill="black"/>
</g>
<path d="M157.808 197.361C157.808 197.361 157.21 186.91 167.283 181.779C177.356 176.649 181.693 178.207 181.693 178.207C181.693 178.207 191.564 166.625 203.591 171.081C215.618 175.537 219.981 187.565 223.729 187.347C227.476 187.128 245.845 164.848 263.414 158.616C280.983 152.383 278.616 165.741 275.66 171.528C272.704 177.314 275.264 181.779 259.86 191.793C244.456 201.807 256.154 201.152 241.718 201.817C241.718 201.817 249.812 203.128 251.589 208.04C253.366 212.952 263.633 220.753 264.425 232.334C265.216 243.916 265.014 260.172 248.035 243.916C231.056 227.66 229.077 224.315 226.137 218.966C223.198 213.617 220.014 211.622 219.029 216.525C218.044 221.427 217.252 232.553 201.452 236.344C185.652 240.135 178.552 228.543 173.819 225.209C169.085 221.874 163.35 213.807 158.608 211.622C153.866 209.437 154.245 198.482 157.808 197.361Z" stroke="#263238" stroke-width="1.03017" stroke-linecap="round" stroke-linejoin="round"/>
<path d="M174.568 201.361C174.569 201.878 174.435 202.384 174.182 202.815C173.928 203.246 173.567 203.582 173.144 203.781C172.721 203.981 172.255 204.034 171.805 203.934C171.355 203.834 170.942 203.586 170.617 203.221C170.292 202.856 170.071 202.39 169.981 201.883C169.891 201.376 169.936 200.85 170.111 200.372C170.286 199.894 170.583 199.486 170.964 199.198C171.345 198.911 171.793 198.757 172.252 198.757C172.555 198.756 172.856 198.822 173.137 198.953C173.418 199.083 173.674 199.275 173.889 199.516C174.104 199.758 174.275 200.046 174.391 200.362C174.508 200.679 174.568 201.018 174.568 201.361Z" fill="#263238" stroke="#263238" stroke-width="1.03017" stroke-linecap="round" stroke-linejoin="round"/>
<path d="M173.43 201.361C173.43 201.624 173.361 201.882 173.232 202.1C173.102 202.319 172.918 202.49 172.703 202.59C172.487 202.691 172.25 202.717 172.021 202.666C171.793 202.615 171.583 202.488 171.418 202.302C171.253 202.116 171.14 201.879 171.095 201.621C171.049 201.363 171.073 201.095 171.162 200.852C171.251 200.609 171.402 200.402 171.596 200.255C171.79 200.109 172.018 200.031 172.251 200.031C172.564 200.031 172.864 200.171 173.085 200.421C173.306 200.67 173.43 201.009 173.43 201.361Z" fill="white" stroke="#263238" stroke-width="1.03017" stroke-linecap="round" stroke-linejoin="round"/>
<path d="M167.965 201.361C168.014 200.114 168.487 198.937 169.287 198.074C170.086 197.211 171.15 196.73 172.256 196.73C173.362 196.73 174.426 197.211 175.225 198.074C176.025 198.937 176.498 200.114 176.547 201.361" stroke="#263238" stroke-width="1.03017" stroke-linecap="round" stroke-linejoin="round"/>
<path d="M155.197 205.56C155.197 205.56 155.837 203.128 160.621 206.197" stroke="#263238" stroke-width="1.03017" stroke-linecap="round" stroke-linejoin="round"/>
<path d="M158.591 211.622C158.591 211.622 156.106 208.211 157.909 208.04C159.711 207.869 161.202 211.356 163.509 211.622C163.509 211.622 168.706 219.793 177.532 217C186.359 214.206 183.066 202.017 183.066 202.017" stroke="#263238" stroke-width="1.03017" stroke-linecap="round" stroke-linejoin="round"/>
<path d="M182.156 179.015C182.156 179.015 185.129 183.11 185.457 187.015C185.786 190.919 193.458 189.162 194.368 199.489C195.278 209.817 185.213 213.922 185.213 213.922" stroke="#263238" stroke-width="1.03017" stroke-linecap="round" stroke-linejoin="round"/>
<path d="M185.702 221.769C185.702 221.769 184.717 234.52 186.612 232.467C188.506 230.415 190.081 228.562 192.305 229.123C194.528 229.684 189.256 223.812 187.85 221.019C187.85 221 187.934 223.669 185.702 221.769Z" fill="#CBD1F8" stroke="#263238" stroke-width="1.03017" stroke-linecap="round" stroke-linejoin="round"/>
<path d="M208.231 194.843C208.231 194.843 215.079 199.774 218.624 213.18" stroke="#263238" stroke-width="1.03017" stroke-linecap="round" stroke-linejoin="round"/>
<path d="M229.852 207.803C235.174 212.078 244.927 218.615 256.129 220.031" stroke="#263238" stroke-width="0.772628" stroke-linecap="round" stroke-linejoin="round"/>
<path d="M225.548 204.012C225.548 204.012 226.18 204.658 227.333 205.684" stroke="#263238" stroke-width="0.772628" stroke-linecap="round" stroke-linejoin="round"/>
<path d="M259.708 236.81C260.879 237.256 261.578 237.484 261.578 237.484" stroke="#263238" stroke-width="0.772628" stroke-linecap="round" stroke-linejoin="round"/>
<path d="M224.073 208.041C224.073 208.041 232.226 219.185 240.842 226.33C246.838 231.309 254.553 234.767 258.672 236.411" stroke="#263238" stroke-width="0.772628" stroke-linecap="round" stroke-linejoin="round"/>
<path d="M267.221 164.763C268.544 164.449 269.883 164.227 271.23 164.098" stroke="#263238" stroke-width="0.772628" stroke-linecap="round" stroke-linejoin="round"/>
<path d="M229.051 190.891C229.051 190.891 245.508 172.402 262.791 166.074" stroke="#263238" stroke-width="0.772628" stroke-linecap="round" stroke-linejoin="round"/>
<path d="M268.231 174.331C269.074 174.331 269.916 174.331 270.758 174.454" stroke="#263238" stroke-width="0.772628" stroke-linecap="round" stroke-linejoin="round"/>
<path d="M228.529 194.843C228.529 194.843 247.799 175.965 266.008 174.435" stroke="#263238" stroke-width="0.772628" stroke-linecap="round" stroke-linejoin="round"/>
<path d="M251.244 191.432C251.917 191.432 252.6 191.537 253.282 191.632" stroke="#263238" stroke-width="0.772628" stroke-linecap="round" stroke-linejoin="round"/>
<path d="M228.529 198.292C234.819 193.923 242.031 191.531 249.416 191.366" stroke="#263238" stroke-width="0.772628" stroke-linecap="round" stroke-linejoin="round"/>
<path d="M202.252 234.966C200.677 238.766 200.272 245.854 202.252 256.096C204.231 266.339 209.756 279.364 213.31 269.968C216.864 260.571 218.751 263.08 220.57 255.165C222.389 247.251 222.709 240.268 220.898 234.966C219.088 229.664 215.315 239.498 207.12 233.664C206.016 232.904 203.608 231.612 202.252 234.966Z" fill="white"/>
<mask id="mask2_468_44690" style="mask-type:luminance" maskUnits="userSpaceOnUse" x="200" y="232" width="23" height="42">
<path d="M202.252 234.966C200.677 238.766 200.272 245.854 202.252 256.096C204.231 266.339 209.756 279.364 213.31 269.968C216.864 260.571 218.751 263.08 220.57 255.165C222.389 247.251 222.709 240.268 220.898 234.966C219.088 229.664 215.315 239.498 207.12 233.664C206.016 232.904 203.608 231.612 202.252 234.966Z" fill="white"/>
</mask>
<g mask="url(#mask2_468_44690)">
<path d="M213.293 235.508C211.093 235.75 208.888 235.096 207.078 233.664C206.017 232.904 203.608 231.612 202.21 234.966C200.896 238.092 200.407 243.517 201.368 251.118C203.111 254.377 206.379 257.474 211.432 250.738C215.845 244.933 215.306 239.631 213.293 235.508Z" fill="#CBD1F8"/>
</g>
<path d="M202.252 234.966C200.677 238.766 200.272 245.854 202.252 256.096C204.231 266.339 209.756 279.364 213.31 269.968C216.864 260.571 218.751 263.08 220.57 255.165C222.389 247.251 222.709 240.268 220.898 234.966C219.088 229.664 215.315 239.498 207.12 233.664C206.016 232.904 203.608 231.612 202.252 234.966Z" stroke="#263238" stroke-width="1.03017" stroke-linecap="round" stroke-linejoin="round"/>
<path d="M209.781 262.424C210.16 263.137 210.556 263.821 210.969 264.467" stroke="#263238" stroke-width="0.772628" stroke-linecap="round" stroke-linejoin="round"/>
<path d="M203.709 238.918C203.709 238.918 204.728 251.374 208.931 260.676" stroke="#263238" stroke-width="0.772628" stroke-linecap="round" stroke-linejoin="round"/>
<path d="M213.942 255.365C214.371 255.954 214.784 256.533 215.281 257.075" stroke="#263238" stroke-width="0.772628" stroke-linecap="round" stroke-linejoin="round"/>
<path d="M205.806 237.389C205.806 237.389 208.282 246.738 212.981 253.959" stroke="#263238" stroke-width="0.772628" stroke-linecap="round" stroke-linejoin="round"/>
<path d="M216.907 243.774C217.325 243.758 217.739 243.675 218.136 243.527" stroke="#263238" stroke-width="0.772628" stroke-linecap="round" stroke-linejoin="round"/>
<path d="M207.305 236.41C207.305 236.41 211.255 242.206 215.247 243.507" stroke="#263238" stroke-width="0.772628" stroke-linecap="round" stroke-linejoin="round"/>
<path d="M239.091 235.156C230.172 226.149 228.454 223.175 226.121 219.004C223.156 213.665 219.998 211.66 219.012 216.563C223.948 221.038 222.836 227.508 224.571 236.163C226.306 244.819 224.2 257.807 228.529 260.743C232.858 263.678 232.614 253.902 233.852 251.66C235.09 249.417 237.314 248.733 236.943 242.729C236.682 238.463 238.021 236.895 239.091 235.156Z" fill="white"/>
<mask id="mask3_468_44690" style="mask-type:luminance" maskUnits="userSpaceOnUse" x="219" y="213" width="21" height="49">
<path d="M239.091 235.156C230.172 226.149 228.454 223.175 226.121 219.004C223.156 213.665 219.998 211.66 219.012 216.563C223.948 221.038 222.836 227.508 224.571 236.163C226.306 244.819 224.2 257.807 228.529 260.743C232.858 263.678 232.614 253.902 233.852 251.66C235.09 249.417 237.314 248.733 236.943 242.729C236.682 238.463 238.021 236.895 239.091 235.156Z" fill="white"/>
</mask>
<g mask="url(#mask3_468_44690)">
<path d="M226.121 218.966C223.156 213.627 219.998 211.622 219.012 216.525C221.124 218.489 222.514 221.269 222.912 224.325C225.37 225.849 228.166 226.538 230.963 226.311C229.128 224.059 227.505 221.597 226.121 218.966Z" fill="#CBD1F8"/>
<path opacity="0.2" d="M226.121 218.966C223.156 213.627 219.998 211.622 219.012 216.525C221.124 218.489 222.514 221.269 222.912 224.325C225.37 225.849 228.166 226.538 230.963 226.311C229.128 224.059 227.505 221.597 226.121 218.966Z" fill="black"/>
</g>
<path d="M239.091 235.156C230.172 226.149 228.454 223.175 226.121 219.004C223.156 213.665 219.998 211.66 219.012 216.563C223.948 221.038 222.836 227.508 224.571 236.163C226.306 244.819 224.2 257.807 228.529 260.743C232.858 263.678 232.614 253.902 233.852 251.66C235.09 249.417 237.314 248.733 236.943 242.729C236.682 238.463 238.021 236.895 239.091 235.156Z" stroke="#263238" stroke-width="1.03017" stroke-linecap="round" stroke-linejoin="round"/>
<path d="M224.992 223.176C225.94 226.729 227.123 230.197 228.53 233.551C230.938 238.767 233.583 243.774 233.583 243.774" stroke="#263238" stroke-width="0.772628" stroke-linecap="round" stroke-linejoin="round"/>
<path d="M223.518 217.58C223.518 217.58 223.821 218.853 224.36 220.743" stroke="#263238" stroke-width="0.772628" stroke-linecap="round" stroke-linejoin="round"/>
<path d="M186.553 173.988C190.587 171.214 196.744 168.544 203.608 171.081C212.561 174.397 217.252 181.884 220.621 185.418C222.019 184.202 223.804 183.356 229.043 181.114C235.258 178.463 224.562 168.126 221.716 162.407C218.869 156.687 219.239 155.566 208.24 152.212C197.241 148.858 197.594 140.811 195.859 139.927C194.124 139.044 191.033 145.514 191.033 145.514C185.593 151.794 186.704 166.872 186.704 166.872C185.955 167.708 186.325 171.936 186.553 173.988Z" fill="white"/>
<mask id="mask4_468_44690" style="mask-type:luminance" maskUnits="userSpaceOnUse" x="186" y="139" width="45" height="47">
<path d="M186.553 173.988C190.587 171.214 196.744 168.544 203.608 171.081C212.561 174.397 217.252 181.884 220.621 185.418C222.019 184.202 223.804 183.356 229.043 181.114C235.258 178.463 224.562 168.126 221.716 162.407C218.869 156.687 219.239 155.566 208.24 152.212C197.241 148.858 197.594 140.811 195.859 139.927C194.124 139.044 191.033 145.514 191.033 145.514C185.593 151.794 186.704 166.872 186.704 166.872C185.955 167.708 186.325 171.936 186.553 173.988Z" fill="white"/>
</mask>
<g mask="url(#mask4_468_44690)">
<path d="M223.518 183.594C223.282 180.069 220.317 175.043 213.411 167.708C205.519 159.29 192.456 157.922 186.881 157.732C186.572 160.766 186.504 163.825 186.679 166.872C185.938 167.708 186.308 171.936 186.536 173.988C190.57 171.214 196.727 168.544 203.591 171.081C212.543 174.397 217.235 181.884 220.604 185.418C221.502 184.672 222.481 184.058 223.518 183.594Z" fill="#CBD1F8"/>
</g>
<path d="M186.553 173.988C190.587 171.214 196.744 168.544 203.608 171.081C212.561 174.397 217.252 181.884 220.621 185.418C222.019 184.202 223.804 183.356 229.043 181.114C235.258 178.463 224.562 168.126 221.716 162.407C218.869 156.687 219.239 155.566 208.24 152.212C197.241 148.858 197.594 140.811 195.859 139.927C194.124 139.044 191.033 145.514 191.033 145.514C185.593 151.794 186.704 166.872 186.704 166.872C185.955 167.708 186.325 171.936 186.553 173.988Z" stroke="#263238" stroke-width="1.03017" stroke-linecap="round" stroke-linejoin="round"/>
<path d="M198.428 153.97C198.858 152.842 199.342 151.742 199.877 150.673" stroke="#263238" stroke-width="0.772628" stroke-linecap="round" stroke-linejoin="round"/>
<path d="M194.908 167.708C195.494 163.634 196.448 159.639 197.754 155.784" stroke="#263238" stroke-width="0.772628" stroke-linecap="round" stroke-linejoin="round"/>
<path d="M205.73 154.863L206.295 154.027" stroke="#263238" stroke-width="0.772628" stroke-linecap="round" stroke-linejoin="round"/>
<path d="M199.877 167.708C201.021 163.576 202.725 159.669 204.93 156.126" stroke="#263238" stroke-width="0.772628" stroke-linecap="round" stroke-linejoin="round"/>
<path d="M212.358 156.858C212.704 156.592 213.049 156.345 213.403 156.126" stroke="#263238" stroke-width="0.772628" stroke-linecap="round" stroke-linejoin="round"/>
<path d="M204.146 168.563C204.146 168.563 206.884 161.846 211.373 157.732" stroke="#263238" stroke-width="0.772628" stroke-linecap="round" stroke-linejoin="round"/>
<path d="M217.496 160.535C217.865 160.387 218.242 160.266 218.625 160.174" stroke="#263238" stroke-width="0.772628" stroke-linecap="round" stroke-linejoin="round"/>
<path d="M208.231 169.39C208.231 169.39 211.769 163.509 216.418 161.039" stroke="#263238" stroke-width="0.772628" stroke-linecap="round" stroke-linejoin="round"/>
<path d="M217.496 166.663C218.573 166.116 219.704 165.714 220.865 165.466" stroke="#263238" stroke-width="0.772628" stroke-linecap="round" stroke-linejoin="round"/>
<path d="M211.078 171.765C212.525 170.117 214.166 168.7 215.955 167.556" stroke="#263238" stroke-width="0.772628" stroke-linecap="round" stroke-linejoin="round"/>
<path d="M223.804 172.829C224.381 172.725 224.964 172.671 225.548 172.668" stroke="#263238" stroke-width="0.772628" stroke-linecap="round" stroke-linejoin="round"/>
<path d="M216.418 176.231C218.232 174.945 220.189 173.936 222.238 173.229" stroke="#263238" stroke-width="0.772628" stroke-linecap="round" stroke-linejoin="round"/>
<path d="M194.908 147.414C195.135 146.958 195.363 146.464 195.607 146.065" stroke="#263238" stroke-width="0.772628" stroke-linecap="round" stroke-linejoin="round"/>
<path d="M190.654 169.389C190.654 169.389 190.157 158.691 194.124 149.162" stroke="#263238" stroke-width="0.772628" stroke-linecap="round" stroke-linejoin="round"/>
</svg>
